<?xml version="1.0" standalone="no"?>
<!DOCTYPE svg PUBLIC "-//W3C//DTD SVG 20010904//EN"
 "http://www.w3.org/TR/2001/REC-SVG-20010904/DTD/svg10.dtd">
<svg version="1.0" xmlns="http://www.w3.org/2000/svg"
 width="612.000000pt" height="612.000000pt" viewBox="0 0 612.000000 612.000000"
 preserveAspectRatio="xMidYMid meet">
<metadata>
Created by potrace 1.16, written by Peter Selinger 2001-2019
</metadata>
<g transform="translate(0.000000,612.000000) scale(0.100000,-0.100000)"
fill="#000000" stroke="none">
<path d="M1735 4764 c-101 -8 -214 -25 -264 -40 -54 -16 -81 -48 -81 -97 0
-17 -12 -32 -39 -50 -61 -40 -147 -134 -206 -222 -141 -214 -255 -517 -386
-1031 -135 -532 -163 -714 -163 -1069 -1 -263 5 -320 50 -494 109 -420 441
-539 706 -252 66 71 129 162 253 366 155 256 232 354 323 415 l45 30 57 -54
c154 -147 378 -178 572 -80 67 34 168 135 202 202 l26 52 230 0 229 0 32 -60
c80 -151 251 -250 428 -250 135 0 245 44 341 136 l57 54 46 -31 c95 -63 168
-159 347 -454 195 -322 294 -427 446 -471 197 -57 382 76 472 341 90 265 94
717 11 1153 -62 328 -226 917 -320 1155 -107 267 -241 466 -380 563 -27 18
-39 34 -39 51 0 13 -7 37 -15 53 -29 57 -190 84 -505 84 -247 1 -280 -6 -318
-65 l-23 -35 -297 -35 c-414 -48 -610 -48 -1024 0 l-297 35 -23 35 c-35 54
-75 63 -273 66 -93 1 -192 1 -220 -1z m1441 -492 c83 -42 136 -128 138 -222 2
-155 -122 -270 -279 -258 -109 9 -190 77 -221 186 -37 125 35 261 163 308 51
19 148 12 199 -14z m-1355 -58 c81 -24 121 -48 189 -110 103 -96 151 -203 151
-341 1 -140 -42 -245 -141 -344 -246 -248 -685 -136 -784 200 -34 115 -13 286
47 383 57 94 160 175 267 209 71 23 199 24 271 3z m2619 -9 c56 -29 77 -113
44 -176 -23 -45 -91 -73 -143 -59 -102 27 -131 156 -50 225 36 29 103 34 149
10z m-286 -296 c81 -64 70 -187 -21 -225 -107 -45 -221 74 -169 175 35 67 135
93 190 50z m576 6 c74 -38 85 -154 19 -209 -85 -72 -213 -13 -212 97 2 77 51
126 126 127 21 0 51 -7 67 -15z m-3571 -400 c48 -135 122 -217 347 -386 94
-71 198 -158 232 -193 99 -106 163 -266 161 -401 l-1 -50 -14 66 c-27 138
-105 281 -198 367 -29 26 -114 92 -190 147 -284 205 -387 362 -385 585 l1 85
13 -80 c7 -44 22 -107 34 -140z m3841 20 c-31 -161 -144 -303 -376 -470 -258
-186 -343 -298 -390 -520 l-13 -60 4 80 c7 143 65 277 165 382 25 27 109 95
185 152 187 139 247 193 306 271 62 82 95 164 111 277 l13 88 3 -70 c2 -38 -2
-97 -8 -130z m-4059 -128 c-86 -484 -115 -761 -115 -1087 1 -238 11 -344 50
-495 23 -87 79 -203 126 -258 22 -26 38 -50 35 -53 -2 -3 -30 5 -60 16 -275
103 -339 630 -176 1445 46 232 164 674 176 661 2 -2 -14 -105 -36 -229z m3489
218 c47 -24 70 -62 70 -115 0 -137 -185 -180 -241 -56 -23 52 -24 73 -1 115
33 62 111 87 172 56z m763 -140 c54 -181 116 -447 151 -645 45 -254 59 -411
60 -635 0 -180 -4 -225 -23 -315 -41 -192 -124 -317 -238 -360 -30 -11 -58
-20 -64 -20 -6 0 8 21 31 47 82 94 142 257 172 468 18 127 15 513 -6 710 -22
213 -59 464 -101 696 -49 269 -48 274 18 54z m-2078 0 c16 -15 25 -36 25 -55
0 -19 -9 -40 -25 -55 -15 -16 -36 -25 -55 -25 -19 0 -40 9 -55 25 -16 15 -25
36 -25 55 0 19 9 40 25 55 15 16 36 25 55 25 19 0 40 -9 55 -25z m0 -310 c16
-15 25 -36 25 -55 0 -19 -9 -40 -25 -55 -15 -16 -36 -25 -55 -25 -19 0 -40 9
-55 25 -16 15 -25 36 -25 55 0 19 9 40 25 55 15 16 36 25 55 25 19 0 40 -9 55
-25z m-600 -257 c61 -32 129 -103 158 -166 17 -36 22 -66 22 -127 0 -71 -4
-89 -33 -148 -84 -171 -283 -232 -455 -139 -57 31 -97 74 -134 145 -23 44 -27
65 -27 137 -1 102 22 161 87 228 75 77 140 103 252 98 62 -2 91 -8 130 -28z
m1380 0 c61 -32 129 -103 158 -166 33 -71 31 -188 -4 -262 -37 -79 -78 -121
-154 -160 -58 -30 -76 -34 -143 -34 -134 1 -236 64 -294 182 -29 59 -33 76
-33 147 0 96 22 150 86 220 73 79 140 106 254 101 62 -2 91 -8 130 -28z"/>
<path d="M2974 4236 c-105 -47 -153 -179 -103 -283 92 -191 374 -140 396 71 8
74 -29 154 -89 194 -49 32 -153 41 -204 18z"/>
<path d="M1615 4143 c-46 -12 -55 -32 -55 -120 0 -76 -2 -86 -25 -108 -21 -22
-33 -25 -103 -25 -117 0 -127 -10 -127 -133 0 -124 3 -127 112 -127 80 0 86
-2 114 -29 28 -28 29 -34 29 -115 0 -109 8 -116 132 -116 117 0 128 10 128
115 0 125 21 145 149 145 102 0 106 5 106 127 0 123 -10 133 -127 133 -70 0
-82 3 -103 25 -23 22 -25 32 -25 108 0 109 -11 121 -113 124 -40 1 -81 -1 -92
-4z"/>
<path d="M2255 2866 c-52 -24 -102 -72 -132 -129 -13 -23 -18 -55 -18 -112 0
-69 4 -87 28 -130 34 -61 85 -104 152 -127 63 -22 97 -22 164 -2 106 31 191
146 191 258 0 194 -208 325 -385 242z"/>
<path d="M3632 2864 c-133 -66 -190 -231 -124 -360 43 -85 152 -154 242 -154
56 0 132 31 177 73 57 52 84 105 90 177 15 158 -107 290 -267 290 -51 0 -78
-6 -118 -26z"/>
</g>
</svg>
